<svg xmlns="http://www.w3.org/2000/svg" viewBox="0 0 1000 1080">
  <defs>
    <style>
      .cls-1 {
        fill: gray;
      }

      .cls-2 {
        fill: #515151;
      }

      .cls-3 {
        fill: #fa0;
      }

      .cls-4 {
        fill: #11ce6b;
      }

      .cls-5 {
        fill: #27d7f4;
      }

      .cls-6 {
        fill: #ef1d41;
      }
    </style>
  </defs>
  <g id="borne">
    <rect class="cls-1" width="1000" height="1080"/>
    <g id="screen">
      <rect class="cls-2" x="40" y="52" width="902" height="232"/>
    </g>
    <g id="pompe">
      <g>
        <path class="cls-3" d="M764.09,640.46l45.15,13.3a10.56,10.56,0,0,1,3.82,2l13.73,11.43,11.55-12.39-19-15.42a4.58,4.58,0,0,0-1.62-.85l-48.87-14.39a4.66,4.66,0,0,0-5.78,3.15L761,634.69A4.64,4.64,0,0,0,764.09,640.46Z"/>
        <path class="cls-3" d="M832.39,671.9a3.07,3.07,0,0,1,1,1.75l21,109.19a12.32,12.32,0,0,0,17.07,8.94l31.41-13.88a3,3,0,0,1,4,1.62,4,4,0,0,0,5.26,2.21l15.3-6.28a4,4,0,0,0,2.21-5.26l-28.57-69.71a3,3,0,0,1,.51-3.12l3.29-3.79a4.66,4.66,0,0,0-.48-6.56l-31.87-27.62a4.67,4.67,0,0,0-6.57.49l-7.09,8.21a3,3,0,0,1-4.24.34L843,658.71l-11.58,12.41Zm38.69,110.18a6.87,6.87,0,0,1-9.55-5.25l-7.07-46.73A14.39,14.39,0,0,1,856.69,720l7.88,6.23a19.73,19.73,0,0,1,6.62,9.4L884.8,776Zm-4.84-68.45,4.54-.82a14.6,14.6,0,0,1,16.32,9.68l14.51,43.1a3,3,0,0,1-1.64,3.74l-9.6,4.24-13.44-39.89a25.68,25.68,0,0,0-8.63-12.25L861,715.66a14.6,14.6,0,0,1,5.24-2Zm-16.48-21.2,4.29,18.14a3,3,0,0,1-2.25,3.63,3.27,3.27,0,0,1-.7.08,3,3,0,0,1-2.94-2.33l-4.28-18.13a3,3,0,1,1,5.88-1.39Zm-8.46-18.1a3,3,0,0,1,3.68,2.18l1.51,5.92a3,3,0,0,1-2.18,3.68,3.2,3.2,0,0,1-.75.09,3,3,0,0,1-2.93-2.27L839.12,678a3,3,0,0,1,2.19-3.69Z"/>
      </g>
      <g>
        <path class="cls-4" d="M547.38,644.24l45.15,13.3a10.72,10.72,0,0,1,3.82,2.05L610.08,671l11.55-12.39-19-15.42a4.75,4.75,0,0,0-1.62-.85L552.17,628a4.66,4.66,0,0,0-5.78,3.15l-2.15,7.35A4.64,4.64,0,0,0,547.38,644.24Z"/>
        <path class="cls-4" d="M615.68,675.68a3.07,3.07,0,0,1,1,1.75l21,109.19a12.32,12.32,0,0,0,17.07,8.94l31.41-13.88a3,3,0,0,1,4,1.63,4,4,0,0,0,2.17,2.19,4,4,0,0,0,3.09,0l15.3-6.28A4,4,0,0,0,713,774l-28.57-69.71a3,3,0,0,1,.51-3.12l3.29-3.79a4.66,4.66,0,0,0-.48-6.56l-31.87-27.62a4.71,4.71,0,0,0-3.39-1.11,4.63,4.63,0,0,0-3.18,1.6l-7.09,8.21a3,3,0,0,1-4.24.34l-11.67-9.72L614.72,674.9Zm38.69,110.18a6.87,6.87,0,0,1-9.55-5.24l-7.07-46.74A14.39,14.39,0,0,1,640,723.73l7.88,6.23a19.73,19.73,0,0,1,6.62,9.4l13.61,40.44Zm-4.84-68.45,4.54-.82a14.61,14.61,0,0,1,16.32,9.68l14.51,43.11a3,3,0,0,1-1.64,3.73l-9.6,4.24-13.44-39.89a25.68,25.68,0,0,0-8.63-12.25l-7.28-5.77a14.6,14.6,0,0,1,5.24-2Zm-16.48-21.19,4.29,18.13a3,3,0,0,1-2.25,3.63,2.74,2.74,0,0,1-.7.08,3,3,0,0,1-2.94-2.33l-4.28-18.13a3,3,0,1,1,5.88-1.39Zm-8.46-18.11a3,3,0,0,1,3.68,2.18l1.51,5.92a3,3,0,0,1-2.18,3.68,3.2,3.2,0,0,1-.75.09,3,3,0,0,1-2.93-2.27l-1.51-5.91a3,3,0,0,1,2.19-3.69Z"/>
      </g>
      <g>
        <path class="cls-5" d="M439.23,638.47l-2.16-7.35a4.66,4.66,0,0,0-5.78-3.15l-48.86,14.39a4.57,4.57,0,0,0-1.62.85l-19,15.42L373.39,671l13.72-11.43a10.76,10.76,0,0,1,3.83-2.05l45.14-13.3A4.65,4.65,0,0,0,439.23,638.47Z"/>
        <path class="cls-5" d="M368.75,674.9l-11.58-12.41-11.68,9.72a3,3,0,0,1-4.23-.34l-7.1-8.21a4.61,4.61,0,0,0-3.18-1.6,4.67,4.67,0,0,0-3.38,1.11l-31.88,27.62a4.65,4.65,0,0,0-.47,6.56l3.28,3.79a3,3,0,0,1,.52,3.12L270.48,774a4,4,0,0,0,2.2,5.26l15.3,6.28a4,4,0,0,0,5.27-2.2,3,3,0,0,1,4-1.63l31.41,13.88a12.32,12.32,0,0,0,17.07-8.94l21-109.19a3,3,0,0,1,1-1.75ZM315.38,779.8,329,739.36a19.79,19.79,0,0,1,6.62-9.4l7.88-6.23a14.45,14.45,0,0,1,2.24,10.15l-7.07,46.74a6.88,6.88,0,0,1-9.55,5.24Zm18.53-62.39a14.57,14.57,0,0,1,5.25,2l-7.29,5.77a25.75,25.75,0,0,0-8.63,12.25l-13.43,39.89-9.6-4.24a3,3,0,0,1-1.65-3.73l14.51-43.11a14.62,14.62,0,0,1,16.33-9.68l4.53.82Zm16.5-21.2a3,3,0,1,1,5.89,1.39L352,715.73a3,3,0,0,1-2.95,2.33,2.71,2.71,0,0,1-.69-.08,3,3,0,0,1-2.25-3.63l4.28-18.13Zm8.46-18.1a3,3,0,0,1,2.18,3.69l-1.51,5.91a3,3,0,0,1-2.92,2.27,3.14,3.14,0,0,1-.75-.09,3,3,0,0,1-2.18-3.68l1.51-5.92a3,3,0,0,1,3.67-2.18Z"/>
      </g>
      <g>
        <path class="cls-6" d="M220.4,638.47l-2.16-7.35a4.66,4.66,0,0,0-5.78-3.15L163.6,642.36a4.66,4.66,0,0,0-1.62.85l-19,15.42L154.56,671l13.73-11.43a10.72,10.72,0,0,1,3.82-2.05l45.15-13.3A4.65,4.65,0,0,0,220.4,638.47Z"/>
        <path class="cls-6" d="M149.92,674.9l-11.58-12.41-11.68,9.72a3,3,0,0,1-4.23-.34l-7.1-8.21a4.61,4.61,0,0,0-3.18-1.6,4.68,4.68,0,0,0-3.38,1.11L76.89,690.79a4.65,4.65,0,0,0-.47,6.56l3.28,3.79a3,3,0,0,1,.52,3.12L51.65,774a4,4,0,0,0,2.2,5.26l15.31,6.28a4,4,0,0,0,5.26-2.2,3,3,0,0,1,4-1.63l31.41,13.88a12.32,12.32,0,0,0,17.07-8.94l21-109.19a3,3,0,0,1,1-1.75ZM96.55,779.8l13.6-40.44a19.81,19.81,0,0,1,6.63-9.4l7.88-6.23a14.44,14.44,0,0,1,2.23,10.15l-7.07,46.74a6.87,6.87,0,0,1-9.55,5.24Zm18.54-62.39a14.6,14.6,0,0,1,5.24,2l-7.28,5.77a25.77,25.77,0,0,0-8.64,12.25L91,777.35l-9.6-4.24a3,3,0,0,1-1.64-3.73l14.51-43.11a14.61,14.61,0,0,1,16.32-9.68l4.53.82Zm16.49-21.2a3,3,0,1,1,5.89,1.39l-4.28,18.13a3,3,0,0,1-2.94,2.33,2.74,2.74,0,0,1-.7-.08,3,3,0,0,1-2.25-3.63l4.28-18.13Zm8.46-18.1a3,3,0,0,1,2.18,3.69l-1.5,5.91a3,3,0,0,1-2.93,2.27,3.2,3.2,0,0,1-.75-.09,3,3,0,0,1-2.18-3.68l1.51-5.92a3,3,0,0,1,3.68-2.18Z"/>
      </g>
    </g>
  </g>
</svg>
